<svg width="720" height="900" viewBox="0 0 720 900" fill="none" xmlns="http://www.w3.org/2000/svg">
<g clip-path="url(#clip0_1508_28997)">
<rect width="720" height="900" transform="matrix(-1 0 0 1 720 0)" fill="url(#paint0_linear_1508_28997)"/>
<g filter="url(#filter0_bd_1508_28997)">
<path fill-rule="evenodd" clip-rule="evenodd" d="M472.414 -2C462.667 133.102 402.505 254.235 310.647 342.68C415.191 264.703 544.861 218.543 685.311 218.543C728.658 218.543 770.978 222.94 811.849 231.312V558.752C773.146 541.667 730.337 532.179 685.311 532.179C512.095 532.179 371.676 672.598 371.676 845.814C371.676 864.941 373.388 883.667 376.667 901.849H60.5087C58.8745 883.389 58.04 864.699 58.04 845.814C58.04 665.966 133.729 503.795 254.992 389.419C167.044 453.617 58.668 491.505 -58.5566 491.505C-69.7891 491.505 -80.9403 491.158 -92 490.472V223.241C-81.0453 224.614 -69.8836 225.322 -58.5566 225.322C75.2521 225.322 186.001 126.589 204.811 -2L472.414 -2Z" fill="url(#paint1_linear_1508_28997)"/>
</g>
</g>
<defs>
<filter id="filter0_bd_1508_28997" x="-102.686" y="-12.6857" width="925.221" height="925.221" filterUnits="userSpaceOnUse" color-interpolation-filters="sRGB">
<feFlood flood-opacity="0" result="BackgroundImageFix"/>
<feGaussianBlur in="BackgroundImageFix" stdDeviation="5.34285"/>
<feComposite in2="SourceAlpha" operator="in" result="effect1_backgroundBlur_1508_28997"/>
<feColorMatrix in="SourceAlpha" type="matrix" values="0 0 0 0 0 0 0 0 0 0 0 0 0 0 0 0 0 0 127 0" result="hardAlpha"/>
<feOffset dy="4.27428"/>
<feGaussianBlur stdDeviation="2.67143"/>
<feComposite in2="hardAlpha" operator="out"/>
<feColorMatrix type="matrix" values="0 0 0 0 1 0 0 0 0 1 0 0 0 0 1 0 0 0 0.2 0"/>
<feBlend mode="normal" in2="effect1_backgroundBlur_1508_28997" result="effect2_dropShadow_1508_28997"/>
<feBlend mode="normal" in="SourceGraphic" in2="effect2_dropShadow_1508_28997" result="shape"/>
</filter>
<linearGradient id="paint0_linear_1508_28997" x1="360" y1="-4.77478e-08" x2="362.003" y2="899.996" gradientUnits="userSpaceOnUse">
<stop stop-color="#E9EAFF"/>
<stop offset="1" stop-color="#E7FCFF"/>
</linearGradient>
<linearGradient id="paint1_linear_1508_28997" x1="359.925" y1="-2" x2="361.534" y2="901.846" gradientUnits="userSpaceOnUse">
<stop stop-color="#FFF8DE"/>
<stop offset="0.481722" stop-color="#D7E2FF"/>
<stop offset="1" stop-color="white"/>
</linearGradient>
<clipPath id="clip0_1508_28997">
<rect width="720" height="900" fill="white" transform="matrix(-1 0 0 1 720 0)"/>
</clipPath>
</defs>
</svg>
